<?xml version="1.0" encoding="utf-8"?>
<!-- Generator: Adobe Illustrator 19.0.1, SVG Export Plug-In . SVG Version: 6.00 Build 0)  -->
<svg version="1.1" id="Layer_1" xmlns="http://www.w3.org/2000/svg" xmlns:xlink="http://www.w3.org/1999/xlink" x="0px" y="0px"
	 viewBox="0 0 440 601.5" style="enable-background:new 0 0 440 601.5;" xml:space="preserve">
<style type="text/css">
	.st0{fill:#F4EA0A;}
	.st1{fill:#FFC141;}
	.st2{fill:#FFFFFF;}
	.st3{fill:#F4EA0B;}
	.st4{fill:#C45F5F;}
	.st5{fill:#F16667;}
</style>
<path class="st0" d="M376.2,136.9l0-0.2c0-3.1-1.3-6-3.5-8.1c-2.2-2.4-5.2-3.9-8.5-3.9h-1c-0.1,0-0.1,0-0.2,0c-0.1,0-0.1,0-0.2,0
	l-43.8,0v-19.5c5.4,0,9.8-4.4,9.8-9.8c0-5.4-4.4-9.8-9.8-9.8v0h0H121.9h0v0c-5.4,0-9.8,4.4-9.8,9.8c0,5.4,4.4,9.8,9.8,9.8v19.5
	l-44.6,0c0,0,0,0,0,0c0,0,0,0,0,0l-1.2,0c-3.4,0-6.4,1.5-8.6,4c-2.1,2.1-3.4,4.9-3.4,8l0,0.1c0,0.3,0,0.7,0,1c0,2.1,0.4,4,1.2,5.7
	l18.3,105.7c0,3.1,1.3,6,3.5,8.1c2.2,2.4,5.2,3.9,8.5,3.9l1,0c0.1,0,0.1,0,0.2,0c0.1,0,0.1,0,0.2,0l48.9,0
	c12,13.8,27.7,24.3,45.7,29.8h-0.4c-5.4,0-9.8,4.4-9.8,9.8v0c0,5.4,4.4,9.8,9.8,9.8h0.4l-10.1,53.1h78.1l-10.1-53.1h0.4
	c5.4,0,9.8-4.4,9.8-9.8v0c0-5.4-4.4-9.8-9.8-9.8h-0.4c17.9-5.5,33.7-16,45.7-29.8l48.5,0c0,0,0,0,0,0c0,0,0,0,0,0l1.2,0
	c3.4,0,6.4-1.5,8.6-4c2.1-2.1,3.4-4.9,3.4-8l18.3-105.7c0.8-1.7,1.2-3.7,1.2-5.7C376.3,137.6,376.3,137.2,376.2,136.9z M107.5,235
	L93,151.1l28.9,0v45.8c0,13.5,2.7,26.4,7.6,38.1L107.5,235z M332.8,235l-21.4,0c4.9-11.7,7.6-24.6,7.6-38.1v-45.8l28.3,0L332.8,235z
	"/>
<polygon class="st1" points="189.7,320.4 251.2,320.4 249.4,310.6 191.6,310.6 "/>
<rect x="121.9" y="105.2" class="st1" width="197.2" height="9.8"/>
<path class="st2" d="M182.2,235.1H162c-11,0-19.9-8.9-19.9-19.9l0-100.2h44l0,116.2C186.1,233.3,184.4,235.1,182.2,235.1z"/>
<g>
	<rect x="122.6" y="85.7" class="st2" width="44" height="0"/>
	<rect x="142.1" y="95.5" class="st2" width="44" height="9.7"/>
	<rect x="142.1" y="105.2" class="st0" width="44" height="9.8"/>
</g>
<path class="st3" d="M62.8,95.9c-12.4,0-22.5-10.1-22.5-22.5s10.1-22.5,22.5-22.5S85.3,61,85.3,73.4S75.2,95.9,62.8,95.9z
	 M62.8,60.1c-7.3,0-13.3,6-13.3,13.3s6,13.3,13.3,13.3s13.3-6,13.3-13.3S70.1,60.1,62.8,60.1z"/>
<path class="st3" d="M385,42.7h-22.2V20.5c0-3.8-3.1-6.9-6.9-6.9c-3.8,0-6.9,3.1-6.9,6.9v22.2h-22.2c-3.8,0-6.9,3.1-6.9,6.9
	c0,3.8,3.1,6.9,6.9,6.9h22.2v22.2c0,3.8,3.1,6.9,6.9,6.9c3.8,0,6.9-3.1,6.9-6.9V56.5H385c3.8,0,6.9-3.1,6.9-6.9
	C391.9,45.8,388.8,42.7,385,42.7z"/>
<polygon class="st3" points="73.3,324 48.5,314.7 73.3,305.2 82.6,280.4 92.1,305.2 116.9,314.5 92.1,324 82.7,348.8 "/>
<path class="st4" d="M330.7,363.8v-46.3c0-3.1,3.3-5.1,6-3.6l93.6,49.9H330.7z"/>
<path class="st4" d="M109.6,543.6v46.3c0,3.1-3.3,5.1-6,3.6L10,543.6L109.6,543.6z"/>
<path class="st5" d="M422.2,543.6H10V372c0-4.5,3.7-8.2,8.2-8.2h412.2v171.7C430.4,539.9,426.7,543.6,422.2,543.6z"/>
<path class="st0" d="M89,424.5H71.8l-2.7,7c-0.3,0.7-0.6,1.2-1.2,1.5c-0.5,0.3-1.1,0.5-1.7,0.5c-0.8,0-1.6-0.3-2.2-0.8
	c-0.6-0.5-1-1.2-1-2c0-0.3,0.1-0.7,0.2-1l12-30.1c0.6-1.6,1.3-2.6,2.2-3.1c0.8-0.5,1.8-0.8,3-0.8c0.8,0,1.4,0.1,2,0.2
	c0.5,0.2,1.1,0.5,1.6,1.1c0.6,0.6,1.1,1.5,1.5,2.5l12,30.1c0.1,0.3,0.2,0.7,0.2,1c0,0.8-0.3,1.4-1,2c-0.6,0.5-1.4,0.8-2.2,0.8
	c-0.6,0-1.2-0.2-1.7-0.5c-0.5-0.3-0.9-0.9-1.2-1.5L89,424.5z M80.4,402l-6.8,17.9h13.7L80.4,402z"/>
<path class="st0" d="M107.3,431.9c-2-1.2-3.4-2.8-4.5-4.8c-1-2-1.5-4.2-1.5-6.7c0-1.8,0.3-3.5,0.9-5.1s1.5-3,2.6-4.2
	c1.1-1.2,2.5-2.2,4.1-2.9c1.6-0.7,3.4-1.1,5.3-1.1c2.9,0,5.3,0.7,7.2,2c0.2,0.2,0.4,0.4,0.6,0.6s0.3,0.4,0.4,0.6s0.1,0.4,0.1,0.6
	s0,0.4-0.1,0.5c-0.1,0.2-0.1,0.3-0.3,0.5c-0.1,0.1-0.2,0.3-0.4,0.4c-0.1,0.1-0.3,0.2-0.5,0.2c-0.2,0.1-0.4,0.1-0.6,0.1
	c-0.2,0-0.4,0-0.6-0.1c-0.2-0.1-0.4-0.1-0.6-0.2c-1.5-0.8-3.1-1.2-4.8-1.2c-2.4,0-4.2,0.9-5.6,2.6c-1.4,1.7-2.1,4-2.1,6.9
	c0,2.8,0.7,5.1,2,6.9c1.3,1.7,3.2,2.6,5.5,2.6c2.3,0,4.1-0.5,5.5-1.5c0.2-0.2,0.4-0.3,0.6-0.3s0.4-0.1,0.6-0.1c0.2,0,0.3,0,0.5,0.1
	c0.1,0,0.3,0.1,0.4,0.2c0.1,0.1,0.2,0.2,0.3,0.3c0.1,0.1,0.2,0.2,0.3,0.4s0.1,0.3,0.2,0.4c0,0.1,0.1,0.3,0.1,0.5
	c0,0.6-0.3,1.2-0.9,1.8c-1.8,1.5-4.4,2.3-8,2.3C111.5,433.7,109.3,433.1,107.3,431.9z"/>
<path class="st0" d="M128.8,432.6c-0.6-0.5-0.8-1.2-0.8-2v-31.9c0-0.8,0.3-1.5,0.9-2c0.6-0.5,1.2-0.7,2-0.7c0.8,0,1.4,0.2,2,0.7
	c0.6,0.5,0.8,1.1,0.8,2V411c0.8-1.2,1.9-2.2,3.4-2.9c1.5-0.7,3.2-1.1,5.1-1.1c1.3,0,2.4,0.2,3.5,0.6c1.1,0.4,2.1,1,3,1.7
	s1.6,1.8,2.1,3.1c0.5,1.3,0.8,2.8,0.8,4.5v13.6c0,0.9-0.3,1.5-0.9,2c-0.6,0.5-1.2,0.7-2,0.7c-0.8,0-1.4-0.2-2-0.7
	c-0.6-0.5-0.8-1.2-0.8-2v-13.7c0-1.9-0.5-3.4-1.4-4.4c-1-1-2.2-1.5-3.8-1.5c-1.9,0-3.5,0.7-4.9,2.1c-1.4,1.4-2.1,3.3-2.1,5.6v11.9
	c0,0.9-0.3,1.5-0.8,2c-0.6,0.5-1.2,0.7-2,0.7C130,433.3,129.3,433.1,128.8,432.6z"/>
<path class="st0" d="M159,401.1c-0.6-0.6-0.9-1.4-0.9-2.4c0-1,0.3-1.8,0.9-2.4c0.6-0.6,1.5-0.9,2.5-0.9c1,0,1.9,0.3,2.5,0.9
	c0.6,0.6,0.9,1.4,0.9,2.4c0,1-0.3,1.8-0.9,2.4c-0.6,0.6-1.5,0.9-2.5,0.9C160.5,402,159.7,401.7,159,401.1z M159.5,432.6
	c-0.5-0.5-0.8-1.2-0.8-2.1v-20.3c0-0.9,0.3-1.6,0.9-2.1c0.6-0.5,1.2-0.8,2-0.8c0.8,0,1.4,0.3,2,0.8c0.6,0.5,0.8,1.2,0.8,2.1v20.3
	c0,0.9-0.3,1.6-0.9,2.1c-0.6,0.5-1.3,0.8-2,0.8C160.7,433.3,160,433.1,159.5,432.6z"/>
<path class="st0" d="M173.5,430c-2.4-2.4-3.6-5.7-3.6-9.9c0-1.7,0.3-3.4,0.8-5c0.6-1.6,1.4-3,2.4-4.2c1-1.2,2.4-2.2,4-2.9
	c1.6-0.7,3.4-1.1,5.4-1.1c2,0,3.8,0.3,5.3,1c1.5,0.7,2.8,1.6,3.7,2.8c0.9,1.2,1.6,2.5,2.1,3.9c0.5,1.5,0.7,3.1,0.8,4.8
	c0,0.6-0.1,1.1-0.4,1.5c-0.3,0.4-0.7,0.6-1.3,0.6h-17c0.1,2.8,0.9,4.8,2.3,6.1c1.4,1.3,3.3,2,5.6,2c2.2,0,4.6-0.9,7.2-2.8
	c0.3-0.2,0.7-0.3,1-0.3c0.5,0,0.9,0.2,1.3,0.6s0.5,0.9,0.5,1.4c0,0.7-0.3,1.2-0.9,1.7c-2.6,2.3-5.8,3.4-9.6,3.4
	C179.1,433.7,175.9,432.4,173.5,430z M189.4,418.2c-0.2-2.1-0.8-3.9-1.9-5.3c-1.1-1.4-2.7-2.1-4.8-2.1c-1.1,0-2.1,0.2-3,0.6
	c-0.9,0.4-1.6,1-2.2,1.7c-0.6,0.7-1,1.5-1.3,2.3c-0.3,0.8-0.5,1.7-0.6,2.7H189.4z"/>
<path class="st0" d="M207.2,432.4c-0.7-0.6-1.4-1.7-2-3.2l-7.5-18.3c-0.1-0.2-0.1-0.3-0.2-0.5s-0.1-0.3-0.1-0.5
	c0-0.7,0.3-1.3,0.9-1.8s1.2-0.8,1.9-0.8c0.5,0,1,0.1,1.4,0.4c0.4,0.3,0.7,0.7,1,1.3l7.3,18.6l7.3-18.6c0.2-0.6,0.5-1,1-1.3
	c0.4-0.3,0.9-0.4,1.4-0.4c0.5,0,0.9,0.1,1.3,0.3c0.4,0.2,0.8,0.5,1.1,0.9s0.4,0.8,0.4,1.3c0,0.3-0.1,0.6-0.2,1l-7.5,18.3
	c-0.6,1.5-1.2,2.6-2,3.2c-0.7,0.6-1.7,1-2.9,1C208.9,433.4,207.9,433.1,207.2,432.4z"/>
<path class="st0" d="M229.5,430c-2.4-2.4-3.6-5.7-3.6-9.9c0-1.7,0.3-3.4,0.8-5c0.6-1.6,1.4-3,2.4-4.2c1-1.2,2.4-2.2,4-2.9
	c1.6-0.7,3.4-1.1,5.4-1.1c2,0,3.8,0.3,5.3,1c1.5,0.7,2.8,1.6,3.7,2.8c0.9,1.2,1.6,2.5,2.1,3.9s0.7,3.1,0.8,4.8
	c0,0.6-0.1,1.1-0.4,1.5c-0.3,0.4-0.7,0.6-1.3,0.6h-17c0.1,2.8,0.9,4.8,2.3,6.1c1.4,1.3,3.3,2,5.6,2c2.2,0,4.6-0.9,7.2-2.8
	c0.3-0.2,0.7-0.3,1-0.3c0.5,0,0.9,0.2,1.3,0.6s0.5,0.9,0.5,1.4c0,0.7-0.3,1.2-0.9,1.7c-2.6,2.3-5.8,3.4-9.6,3.4
	C235.1,433.7,231.9,432.4,229.5,430z M245.4,418.2c-0.2-2.1-0.8-3.9-1.9-5.3c-1.1-1.4-2.7-2.1-4.8-2.1c-1.1,0-2.1,0.2-3,0.6
	c-0.9,0.4-1.6,1-2.2,1.7c-0.6,0.7-1,1.5-1.3,2.3c-0.3,0.8-0.5,1.7-0.6,2.7H245.4z"/>
<path class="st0" d="M256.7,432.6c-0.6-0.5-0.8-1.1-0.8-2v-20.6c0-0.8,0.3-1.5,0.9-2c0.6-0.5,1.2-0.7,2-0.7c0.8,0,1.4,0.2,2,0.7
	c0.6,0.4,0.9,1.1,0.9,1.8v1.8c1.7-3.1,4.4-4.7,8.3-4.7c2.2,0,4,0.5,5.5,1.6s2.5,2.5,3.1,4.2c0.8-1.9,2-3.4,3.5-4.4
	c1.6-1,3.4-1.5,5.6-1.5c2.9,0,5.2,0.8,6.9,2.5c1.8,1.6,2.7,4.1,2.7,7.5v13.7c0,0.9-0.3,1.5-0.9,2s-1.2,0.7-2,0.7
	c-0.8,0-1.4-0.2-2-0.7s-0.8-1.1-0.8-2v-13.8c0-2-0.5-3.5-1.4-4.5c-0.9-1-2.2-1.5-3.9-1.5c-2,0-3.7,0.7-4.9,2.2s-1.9,3.5-1.9,6.1
	v11.4c0,0.9-0.3,1.5-0.8,2c-0.6,0.5-1.2,0.7-2,0.7c-0.8,0-1.4-0.2-2-0.7c-0.6-0.5-0.8-1.2-0.8-2V417c0-2.1-0.5-3.6-1.4-4.6
	s-2.2-1.5-3.9-1.5c-2.1,0-3.7,0.7-4.9,2.1c-1.2,1.4-1.8,3.3-1.8,5.7v12c0,0.9-0.3,1.5-0.9,2c-0.6,0.5-1.3,0.7-2,0.7
	C257.9,433.3,257.2,433.1,256.7,432.6z"/>
<path class="st0" d="M306.3,430c-2.4-2.4-3.6-5.7-3.6-9.9c0-1.7,0.3-3.4,0.8-5c0.6-1.6,1.4-3,2.4-4.2c1-1.2,2.4-2.2,4-2.9
	c1.6-0.7,3.4-1.1,5.4-1.1c2,0,3.8,0.3,5.3,1c1.5,0.7,2.8,1.6,3.7,2.8c0.9,1.2,1.6,2.5,2.1,3.9c0.5,1.5,0.7,3.1,0.8,4.8
	c0,0.6-0.1,1.1-0.4,1.5c-0.3,0.4-0.7,0.6-1.3,0.6h-17c0.1,2.8,0.9,4.8,2.3,6.1s3.3,2,5.6,2c2.2,0,4.6-0.9,7.2-2.8
	c0.3-0.2,0.7-0.3,1-0.3c0.5,0,0.9,0.2,1.3,0.6s0.5,0.9,0.5,1.4c0,0.7-0.3,1.2-0.9,1.7c-2.6,2.3-5.8,3.4-9.6,3.4
	C311.9,433.7,308.7,432.4,306.3,430z M322.2,418.2c-0.2-2.1-0.8-3.9-1.9-5.3c-1.1-1.4-2.7-2.1-4.8-2.1c-1.1,0-2.1,0.2-3,0.6
	s-1.6,1-2.2,1.7c-0.6,0.7-1,1.5-1.3,2.3c-0.3,0.8-0.5,1.7-0.6,2.7H322.2z"/>
<path class="st0" d="M333.5,432.6c-0.6-0.5-0.8-1.1-0.8-2v-20.6c0-0.8,0.3-1.5,0.9-2c0.6-0.5,1.2-0.7,2-0.7s1.4,0.2,2,0.7
	c0.6,0.5,0.8,1.1,0.8,1.9v1.5c0.7-1.4,1.8-2.5,3.3-3.3s3.2-1.1,5.1-1.1c1.3,0,2.5,0.2,3.6,0.6c1.1,0.4,2.1,1,3,1.8
	c0.9,0.8,1.6,1.8,2.1,3.1s0.8,2.8,0.8,4.5v13.6c0,0.9-0.3,1.5-0.9,2c-0.6,0.5-1.2,0.7-2,0.7c-0.8,0-1.4-0.2-2-0.7s-0.8-1.1-0.8-2
	v-13.7c0-2-0.5-3.5-1.5-4.5s-2.3-1.6-3.9-1.6c-1.9,0-3.4,0.7-4.8,2.2c-1.3,1.5-2,3.4-2,5.7v11.8c0,0.8-0.3,1.5-0.8,2
	c-0.6,0.5-1.2,0.7-2,0.7S334,433.1,333.5,432.6z"/>
<path class="st0" d="M367.1,431.5c-1.3-1.4-1.9-3.3-1.9-5.8v-14.4h-2.9c-0.7,0-1.2-0.2-1.5-0.5c-0.4-0.4-0.5-0.8-0.5-1.3
	s0.2-1,0.5-1.3s0.8-0.5,1.5-0.5h2.9l0.8-7c0.1-0.7,0.4-1.3,0.9-1.8c0.5-0.5,1.1-0.7,1.9-0.7c0.6,0,1.1,0.2,1.5,0.5s0.6,0.9,0.6,1.6
	v7.4h4.5c0.7,0,1.2,0.2,1.5,0.5c0.3,0.4,0.5,0.8,0.5,1.3c0,0.5-0.2,1-0.5,1.3c-0.3,0.3-0.8,0.5-1.5,0.5h-4.5v13.1
	c0,1,0.1,1.9,0.3,2.6c0.2,0.7,0.5,1.2,0.9,1.6s1,0.6,1.7,0.6h0.2l1.9-0.1c0.1,0,0.1,0,0.2,0c0.5,0,0.9,0.1,1.2,0.3
	c0.3,0.2,0.6,0.5,0.8,0.8c0.2,0.3,0.2,0.7,0.2,1.1c0,0.3,0,0.5-0.1,0.7s-0.2,0.4-0.3,0.6c-0.1,0.2-0.3,0.3-0.5,0.4
	c-0.2,0.1-0.4,0.2-0.6,0.3c-0.3,0.1-0.5,0.1-0.7,0.2c-0.2,0.1-0.5,0.1-0.9,0.1s-0.6,0-0.9,0c-0.3,0-0.6,0-1,0c-0.1,0-0.2,0-0.3,0
	s-0.2,0-0.4,0s-0.2,0-0.3,0C370.1,433.6,368.4,432.9,367.1,431.5z"/>
<path class="st2" d="M70.7,510.7c-2.5-0.8-4.7-1.9-6.6-3.4c-1.9-1.5-3.4-3.5-4.6-5.9c-1.1-2.4-1.7-5.2-1.7-8.2v-29.6
	c0-1.4,0.4-2.4,1.3-3.2c0.9-0.8,1.9-1.1,3.2-1.1c1.2,0,2.2,0.4,3.1,1.1c0.9,0.8,1.3,1.8,1.3,3.2v29.4c0,2,0.3,3.8,1,5.4
	c0.7,1.6,1.6,2.8,2.8,3.7c1.2,0.9,2.4,1.6,3.8,2.1c1.4,0.5,2.9,0.7,4.4,0.7c1.6,0,3-0.2,4.4-0.7c1.4-0.5,2.7-1.2,3.8-2.1
	c1.2-0.9,2.1-2.2,2.8-3.7c0.7-1.6,1-3.3,1-5.4v-29.4c0-1.4,0.4-2.4,1.3-3.2c0.9-0.8,1.9-1.1,3.2-1.1c1.2,0,2.2,0.4,3.1,1.1
	c0.9,0.8,1.3,1.8,1.3,3.2v29.6c0,3.1-0.6,5.8-1.7,8.2c-1.1,2.4-2.6,4.4-4.6,5.9c-1.9,1.5-4.1,2.7-6.6,3.4c-2.5,0.8-5.2,1.2-8.1,1.2
	S73.2,511.5,70.7,510.7z"/>
<path class="st2" d="M112.1,510.1c-0.8-0.7-1.2-1.6-1.2-2.8v-28.5c0-1.2,0.4-2.1,1.2-2.7c0.8-0.7,1.7-1,2.8-1s2,0.3,2.8,1
	c0.8,0.6,1.2,1.5,1.2,2.6v2c1-2,2.5-3.5,4.5-4.6c2-1,4.4-1.6,7.1-1.6c1.8,0,3.4,0.3,5,0.8c1.5,0.5,2.9,1.3,4.2,2.4
	c1.2,1.1,2.2,2.5,2.9,4.3c0.7,1.8,1,3.9,1,6.2v18.9c0,1.2-0.4,2.1-1.2,2.8c-0.8,0.7-1.7,1-2.8,1c-1.1,0-2-0.3-2.7-1
	c-0.8-0.7-1.2-1.6-1.2-2.8v-19c0-2.7-0.7-4.8-2.1-6.2c-1.4-1.4-3.2-2.2-5.4-2.2c-2.6,0-4.8,1-6.6,3s-2.8,4.7-2.8,8v16.4
	c0,1.2-0.4,2.1-1.2,2.8c-0.8,0.7-1.7,1-2.8,1C113.8,511.1,112.9,510.8,112.1,510.1z"/>
<path class="st2" d="M154.6,510.1c-0.8-0.7-1.1-1.6-1.1-2.9v-43.8c0-1.2,0.4-2.2,1.2-2.9c0.8-0.7,1.7-1,2.8-1c1.1,0,2,0.4,2.8,1.1
	c0.8,0.7,1.2,1.7,1.2,2.9v43.8c0,1.2-0.4,2.2-1.2,2.9c-0.8,0.7-1.7,1.1-2.8,1.1S155.4,510.7,154.6,510.1z"/>
<path class="st2" d="M179.7,510c-2.4-1-4.3-2.4-5.8-4.2c-1.5-1.7-2.6-3.7-3.4-5.9c-0.8-2.2-1.2-4.5-1.2-6.9c0-2.4,0.4-4.8,1.2-7
	c0.8-2.2,1.9-4.2,3.4-5.9c1.5-1.7,3.4-3.1,5.8-4.1s5.1-1.5,8.1-1.5c3,0,5.6,0.5,8,1.5c2.4,1,4.3,2.4,5.8,4.1s2.6,3.7,3.4,5.9
	c0.8,2.2,1.2,4.6,1.2,7.1c0,1.9-0.2,3.7-0.7,5.5c-0.5,1.8-1.2,3.4-2.2,5c-1,1.6-2.2,3-3.6,4.1s-3.2,2.1-5.2,2.8s-4.3,1-6.7,1
	C184.8,511.6,182.1,511.1,179.7,510z M195.7,502.8c1.9-2.3,2.8-5.5,2.8-9.6c0-4.1-0.9-7.4-2.8-9.7c-1.9-2.3-4.5-3.5-7.8-3.5
	c-3.3,0-5.9,1.2-7.8,3.5c-1.9,2.3-2.8,5.6-2.8,9.7c0,4.1,0.9,7.3,2.8,9.6s4.5,3.5,7.8,3.5C191.2,506.2,193.8,505.1,195.7,502.8z"/>
<path class="st2" d="M220.3,509.1c-2.7-1.7-4.8-3.9-6.2-6.7c-1.4-2.8-2.1-5.9-2.1-9.3c0-2.5,0.4-4.9,1.3-7.1c0.9-2.2,2-4.2,3.6-5.9
	c1.5-1.7,3.4-3,5.6-4s4.7-1.5,7.3-1.5c4,0,7.3,0.9,10,2.8c0.3,0.2,0.6,0.5,0.8,0.8s0.4,0.5,0.5,0.8c0.1,0.3,0.2,0.5,0.2,0.8
	c0,0.3,0,0.5-0.1,0.7c-0.1,0.2-0.2,0.4-0.4,0.6c-0.2,0.2-0.3,0.4-0.5,0.5c-0.2,0.1-0.4,0.3-0.7,0.3c-0.3,0.1-0.5,0.1-0.8,0.1
	c-0.3,0-0.5,0-0.8-0.1c-0.3-0.1-0.5-0.2-0.8-0.3c-2.1-1.2-4.3-1.7-6.7-1.7c-3.3,0-5.8,1.2-7.7,3.6c-1.9,2.4-2.8,5.6-2.8,9.5
	c0,3.9,0.9,7.1,2.8,9.5c1.8,2.4,4.4,3.6,7.6,3.6c3.2,0,5.7-0.7,7.6-2.1c0.3-0.2,0.6-0.4,0.9-0.5s0.6-0.1,0.9-0.1
	c0.2,0,0.4,0,0.6,0.1c0.2,0.1,0.4,0.1,0.6,0.2s0.3,0.2,0.5,0.4c0.1,0.1,0.3,0.3,0.4,0.5c0.1,0.2,0.2,0.4,0.2,0.6s0.1,0.4,0.1,0.6
	c0,0.9-0.4,1.7-1.3,2.4c-2.5,2.1-6.1,3.2-11,3.2C226.1,511.6,223,510.8,220.3,509.1z"/>
<path class="st2" d="M247.5,510c-0.8-0.7-1.2-1.7-1.2-2.9v-43.7c0-1.2,0.4-2.2,1.2-2.9c0.8-0.7,1.7-1,2.8-1c1.1,0,2,0.4,2.7,1.1
	c0.8,0.7,1.2,1.7,1.2,2.9v27.2l15.6-15c0.3-0.3,0.7-0.5,1-0.7s0.7-0.2,1.1-0.2c0.6,0,1.2,0.2,1.7,0.5c0.5,0.3,1,0.8,1.3,1.4
	c0.3,0.6,0.5,1.1,0.5,1.7c0,0.3,0,0.5-0.1,0.8c-0.1,0.2-0.2,0.5-0.3,0.7c-0.1,0.2-0.3,0.5-0.5,0.6l-11.8,11.1l13.3,14
	c0.3,0.4,0.6,0.7,0.7,1.1c0.2,0.4,0.2,0.8,0.2,1.2c0,0.6-0.2,1.2-0.5,1.7c-0.3,0.6-0.8,1-1.4,1.3c-0.6,0.3-1.2,0.5-1.8,0.5
	c-1,0-1.8-0.4-2.6-1.2l-16.5-17.3v14.4c0,1.2-0.4,2.2-1.2,2.9c-0.8,0.7-1.7,1.1-2.8,1.1C249.2,511.1,248.3,510.7,247.5,510z"/>
<path class="st2" d="M286.2,506.5c-3.3-3.3-5-7.9-5-13.7c0-2.4,0.4-4.7,1.2-6.9c0.8-2.2,1.9-4.1,3.3-5.8s3.3-3,5.5-4
	c2.2-1,4.7-1.5,7.4-1.5c2.8,0,5.2,0.5,7.3,1.4c2.1,0.9,3.8,2.2,5.1,3.8c1.3,1.6,2.3,3.4,2.9,5.5c0.7,2,1,4.2,1.1,6.6
	c0,0.9-0.2,1.6-0.6,2.1c-0.4,0.6-1,0.8-1.8,0.8h-23.6c0.2,3.8,1.2,6.6,3.1,8.4s4.5,2.7,7.8,2.8c3,0,6.3-1.3,10-3.9
	c0.5-0.3,0.9-0.5,1.4-0.5c0.7,0,1.3,0.3,1.7,0.8c0.5,0.6,0.7,1.2,0.7,1.9c0,0.9-0.4,1.7-1.2,2.3c-3.6,3.2-8,4.7-13.2,4.7
	C294,511.5,289.6,509.9,286.2,506.5z M308.3,490.2c-0.2-2.9-1.1-5.4-2.6-7.3c-1.5-1.9-3.8-2.9-6.7-2.9c-1.5,0-2.9,0.3-4.1,0.9
	c-1.2,0.6-2.2,1.4-3,2.4s-1.4,2.1-1.8,3.2c-0.4,1.2-0.7,2.4-0.8,3.7H308.3z"/>
<path class="st2" d="M329.4,510.1c-2-1-3.6-2.4-4.9-4.1c-1.3-1.7-2.2-3.7-2.9-6s-1-4.6-1-7.1c0-5.4,1.4-9.8,4.3-13.2
	c2.9-3.4,6.8-5,11.7-5c5.3,0,9.1,2,11.5,5.9v-17.4c0-1.2,0.4-2.1,1.2-2.7c0.8-0.6,1.7-1,2.8-1c1.1,0,2,0.3,2.8,1
	c0.8,0.6,1.2,1.5,1.2,2.7v44.1c0,1.2-0.4,2.1-1.2,2.8c-0.8,0.7-1.7,1-2.8,1c-2.6,0-3.9-1.3-3.9-3.8v-2c-2.4,4.2-6.4,6.3-12,6.3
	C333.6,511.6,331.4,511.1,329.4,510.1z M345.7,502.9c1.5-2.2,2.3-5.5,2.3-9.9c0-1.7-0.2-3.3-0.6-4.8s-0.9-2.9-1.7-4.1
	c-0.8-1.3-1.8-2.3-3.1-3c-1.3-0.7-2.9-1.1-4.7-1.1c-1.4,0-2.7,0.3-3.8,0.8c-1.1,0.5-2,1.2-2.8,2.1c-0.7,0.9-1.3,1.9-1.8,3
	s-0.8,2.3-1,3.5s-0.3,2.4-0.3,3.6c0,1.2,0.1,2.4,0.3,3.6s0.5,2.3,1,3.5c0.5,1.2,1,2.2,1.7,3.1c0.7,0.9,1.6,1.6,2.7,2.2
	c1.1,0.6,2.4,0.8,3.8,0.8C341.6,506.2,344.2,505.1,345.7,502.9z"/>
<path class="st2" d="M371,461.6c0,0,0-0.1,0-0.1c0,0,0-0.1,0-0.1c0,0,0-0.1,0-0.1c0-1.2,0.5-2.2,1.4-2.9c0.9-0.7,2.1-1.1,3.3-1.1
	c1.3,0,2.4,0.4,3.3,1.1c0.9,0.7,1.4,1.7,1.4,2.9c0,0.1,0,0.3,0,0.4l-2.4,31.7c-0.1,0.8-0.4,1.4-0.8,1.8c-0.4,0.4-1,0.6-1.6,0.6
	c-0.4,0-0.7-0.1-1.1-0.3s-0.6-0.5-0.8-0.8c-0.2-0.4-0.4-0.8-0.4-1.3L371,461.6z M372.4,510c-0.9-0.9-1.4-1.9-1.4-3.1
	c0-1.2,0.4-2.2,1.3-3.1c0.9-0.9,2-1.3,3.5-1.3c1.3,0,2.5,0.4,3.4,1.3c0.9,0.9,1.4,1.9,1.4,3.2c0,1.2-0.4,2.2-1.3,3.1
	c-0.9,0.9-2,1.3-3.4,1.3C374.5,511.3,373.4,510.8,372.4,510z"/>
</svg>
