<?xml version="1.0" encoding="utf-8"?>
<!-- Generator: Adobe Illustrator 19.0.1, SVG Export Plug-In . SVG Version: 6.00 Build 0)  -->
<svg version="1.1" id="Layer_1" xmlns="http://www.w3.org/2000/svg" xmlns:xlink="http://www.w3.org/1999/xlink" x="0px" y="0px"
	 viewBox="0 0 80 80" style="enable-background:new 0 0 80 80;" xml:space="preserve">
<style type="text/css">
	.st0{fill:#F4EA0A;}
	.st1{fill:#FFC141;}
	.st2{fill:#F16667;}
	.st3{fill:#C45F5F;}
	.st4{fill:#F0F1F2;}
</style>
<g>
	<path class="st0" d="M77.4,39.7c0.5-3.3-1.7-6.5-4.6-6.5H49.9c2.3-1.8,3.1-15.4-1.2-22.5c-3.2-5.3-9.1-4.4-8.7-2.2
		c0.7,3.9-0.6,12.6-0.6,12.6c-3.1,11.8-17.2,19-17.2,19H8c-1.3,0-2.2,1.3-1.6,2.5l5.1,24.9c0.3,0.7,0.9,1.1,1.6,1.1l10.5,0
		c2.5,2.7,4.7,4.4,6.9,4.5h34.8c0,0,3.6-0.5,4.6-3.1s-0.8-4.6-0.8-4.6s3.1-1,4.4-4.4c1.3-3.3-1.3-5.7-1.3-5.7s3.3-2.1,3.9-5.1
		c0.6-3.6-2.8-5.1-2.8-5.1S77,42.8,77.4,39.7z"/>
	<g>
		<polygon class="st0" points="21.3,68.7 13.1,68.7 13.1,68.7 21.3,68.7 		"/>
		<path class="st1" d="M77.4,39.7c0.5-3.3-1.7-6.5-4.6-6.5h-7.3c-1,26.2-7.5,39.9-7.5,39.9h7.3c0,0,3.6-0.5,4.6-3.1
			c1-2.6-0.8-4.6-0.8-4.6s3.1-1,4.4-4.4c1.3-3.3-1.3-5.7-1.3-5.7s3.3-2.1,3.9-5.1c0.6-3.6-2.8-5.1-2.8-5.1S77,42.8,77.4,39.7z"/>
	</g>
	<path class="st1" d="M49.9,33.2c2.3-1.8,3.1-15.4-1.2-22.4c-1.8-3-4.4-4-6.3-3.9c2,4,4.3,11.2,0.9,23.6c-0.4,1.4,0.7,2.8,2.1,2.8
		L49.9,33.2z"/>
	<path class="st2" d="M17.2,71.1h-13c-0.9,0-1.6-0.7-1.6-1.6V39.9c0-0.9,0.7-1.6,1.6-1.6h13c0.9,0,1.6,0.7,1.6,1.6v29.6
		C18.8,70.3,18.1,71.1,17.2,71.1z"/>
	<path class="st3" d="M2.5,58.2v11.2c0,0.9,0.7,1.6,1.6,1.6h13c0.9,0,1.6-0.7,1.6-1.6V58.2H2.5z"/>
	<circle class="st4" cx="6.7" cy="66.5" r="2.5"/>
</g>
</svg>
